# xmcd
#
# Track frame offsets:
#	150
#	15240
#	32585
#	47370
#	60942
#	76250
#	96000
#	104095
#	117797
#	133877
#	149802
#	166565
#	178407
#	194120
#	203492
#	214365
#	230607
#	245627
#	261545
#	268857
#
# Disc length: 3732 seconds
#
# Revision: 12
# Processed by: cddbd v1.5.2PL0 Copyright (c) Steve Scherf et al.
# Submitted via: EasyCDDAExtractor 12.0.0.1
#
DISCID=280e9214
DTITLE=Various Artist - Chegger's Choice CD2
DYEAR=1999
DGENRE=Pop
TTITLE0=Orville's Song-Keith Harris
TTITLE1=Ernie (The Fastest Milkman In The West)-Benny Hill
TTITLE2=Two Little Boys-Rolf Harris
TTITLE3=There's No One Quite Like Grandma-St Winnifreds School Choir
TTITLE4=Grandad-Clive Dunn
TTITLE5=Seven Tears-Goombay Dance Band
TTITLE6=Tiptoe Through the Tulips with Me-Tiny Tim
TTITLE7=Combine Harvester-Wurzels
TTITLE8=Mr Blobby-Mr Blobby
TTITLE9=Snot Rap-Kenny Everett
TTITLE10=The Essential Wally Party Medley-Gay Gordon and The Mince Pies
TTITLE11=Leap Up and Down (Wave Your Knickers in the Air)-St. Cecilia
TTITLE12=We're Going to Spain-Krankies
TTITLE13=Johnny Reggae-Piglets
TTITLE14=Hello-Maguerita Pracatan
TTITLE15=Pump Up the Bitter-Starturn on 45 Pints
TTITLE16=Seven Drunken Nights-Dubliners
TTITLE17=Anyone Call Fall in Love-Anita Dobson
TTITLE18=Kinky Boots-Patrick McNee and Honor Blackman
TTITLE19=Cinderella Rockefella-Esther and Abi Ofarim
EXTD=YEAR: 1999
EXTT0=
EXTT1=
EXTT2=
EXTT3=
EXTT4=
EXTT5=
EXTT6=
EXTT7=
EXTT8=
EXTT9=
EXTT10=
EXTT11=
EXTT12=
EXTT13=
EXTT14=
EXTT15=
EXTT16=
EXTT17=
EXTT18=
EXTT19=
PLAYORDER=
